  <svg
    xmlns="http://www.w3.org/2000/svg"
    xmlns:xlink="http://www.w3.org/1999/xlink"
    width="246"
    zoomAndPan="magnify"
    viewBox="0 0 184.5 38.999999"
    height="52"
    preserveAspectRatio="xMidYMid meet"
    version="1.0"
  >
    <defs>
      <g />
      <clipPath id="ba7f551525">
        <path
          d="M 72.847656 1.804688 L 102.019531 1.804688 L 102.019531 36.960938 L 72.847656 36.960938 Z M 72.847656 1.804688 "
          clip-rule="nonzero"
        />
      </clipPath>
    </defs>
    <g clip-path="url(#ba7f551525)">
      <path
        fill="#06d6a0"
        d="M 73.617188 33.683594 L 86.992188 31.738281 L 86.992188 36.652344 C 86.992188 36.96875 87.257812 37.226562 87.585938 37.226562 C 87.910156 37.226562 88.175781 36.96875 88.175781 36.652344 L 88.175781 31.738281 L 101.554688 33.683594 C 101.785156 33.710938 102 33.617188 102.125 33.441406 C 102.257812 33.257812 102.265625 33.019531 102.152344 32.828125 L 96.585938 23.324219 L 99.511719 23.324219 C 99.730469 23.324219 99.929688 23.207031 100.03125 23.023438 C 100.136719 22.832031 100.125 22.605469 100.003906 22.425781 L 93.003906 12.316406 L 94.613281 12.316406 C 94.835938 12.316406 95.039062 12.195312 95.140625 12.003906 C 95.242188 11.808594 95.222656 11.578125 95.089844 11.398438 L 88.042969 2.035156 C 88.03125 2.019531 88.019531 2.003906 88 1.988281 C 87.988281 1.976562 87.972656 1.964844 87.949219 1.941406 L 87.804688 1.863281 C 87.804688 1.863281 87.769531 1.851562 87.75 1.84375 L 87.648438 1.824219 C 87.648438 1.824219 87.605469 1.820312 87.585938 1.820312 C 87.570312 1.820312 87.554688 1.824219 87.535156 1.824219 C 87.515625 1.824219 87.496094 1.828125 87.472656 1.832031 C 87.460938 1.835938 87.445312 1.839844 87.40625 1.847656 C 87.390625 1.855469 87.378906 1.859375 87.355469 1.867188 L 87.316406 1.886719 C 87.316406 1.886719 87.277344 1.90625 87.253906 1.921875 L 87.222656 1.945312 C 87.222656 1.945312 87.183594 1.972656 87.167969 1.988281 C 87.15625 2.003906 87.144531 2.015625 87.109375 2.054688 L 80.082031 11.398438 C 79.949219 11.578125 79.929688 11.808594 80.03125 12.003906 C 80.132812 12.195312 80.335938 12.316406 80.558594 12.316406 L 82.167969 12.316406 L 75.167969 22.425781 C 75.046875 22.605469 75.035156 22.832031 75.140625 23.019531 C 75.242188 23.207031 75.441406 23.324219 75.660156 23.324219 L 78.585938 23.324219 L 73.015625 32.828125 C 72.90625 33.019531 72.917969 33.257812 73.042969 33.441406 C 73.171875 33.617188 73.378906 33.714844 73.617188 33.683594 Z M 83.769531 12.0625 C 83.894531 11.882812 83.902344 11.65625 83.800781 11.464844 C 83.695312 11.28125 83.496094 11.164062 83.277344 11.164062 L 81.722656 11.164062 L 87.585938 3.371094 L 93.449219 11.164062 L 91.890625 11.164062 C 91.675781 11.164062 91.476562 11.28125 91.371094 11.464844 C 91.265625 11.65625 91.277344 11.886719 91.402344 12.0625 L 98.402344 22.171875 L 95.566406 22.171875 C 95.355469 22.171875 95.160156 22.28125 95.054688 22.457031 C 94.949219 22.632812 94.949219 22.855469 95.054688 23.035156 L 100.523438 32.367188 L 88.175781 30.574219 L 88.175781 29.546875 L 91.277344 27.03125 C 91.398438 26.933594 91.472656 26.792969 91.488281 26.636719 C 91.5 26.484375 91.453125 26.332031 91.351562 26.214844 C 91.148438 25.984375 90.761719 25.949219 90.519531 26.144531 L 88.175781 28.046875 L 88.175781 24.363281 L 91.277344 21.847656 C 91.398438 21.746094 91.472656 21.605469 91.488281 21.453125 C 91.503906 21.300781 91.453125 21.148438 91.351562 21.03125 C 91.148438 20.796875 90.761719 20.765625 90.519531 20.960938 L 88.175781 22.863281 L 88.175781 19.179688 L 91.277344 16.664062 C 91.398438 16.5625 91.472656 16.425781 91.488281 16.269531 C 91.5 16.117188 91.453125 15.964844 91.351562 15.847656 C 91.148438 15.617188 90.761719 15.582031 90.519531 15.777344 L 88.175781 17.679688 L 88.175781 12.378906 C 88.175781 12.0625 87.910156 11.804688 87.585938 11.804688 C 87.257812 11.804688 86.992188 12.0625 86.992188 12.378906 L 86.992188 17.679688 L 84.652344 15.777344 C 84.410156 15.582031 84.023438 15.617188 83.820312 15.847656 C 83.71875 15.964844 83.671875 16.117188 83.683594 16.269531 C 83.695312 16.421875 83.773438 16.5625 83.894531 16.664062 L 86.992188 19.179688 L 86.992188 22.863281 L 84.652344 20.960938 C 84.414062 20.765625 84.023438 20.800781 83.820312 21.03125 C 83.71875 21.152344 83.671875 21.300781 83.683594 21.453125 C 83.695312 21.609375 83.773438 21.746094 83.894531 21.847656 L 86.992188 24.363281 L 86.992188 28.046875 L 84.652344 26.148438 C 84.410156 25.953125 84.023438 25.984375 83.820312 26.214844 C 83.71875 26.332031 83.671875 26.484375 83.683594 26.636719 C 83.695312 26.792969 83.773438 26.933594 83.894531 27.03125 L 86.992188 29.546875 L 86.992188 30.574219 L 74.648438 32.367188 L 80.121094 23.035156 C 80.222656 22.855469 80.222656 22.636719 80.117188 22.457031 C 80.007812 22.28125 79.8125 22.171875 79.605469 22.171875 L 76.773438 22.171875 Z M 83.769531 12.0625 "
        fill-opacity="1"
        fill-rule="nonzero"
      />
    </g>
    <g fill="#000000" fill-opacity="1">
      <g transform="translate(26.832361, 27.505074)">
        <g>
          <path
            d="M 19.390625 -15.234375 L 15.3125 0 L 13.53125 0 L 10.515625 -10.25 C 10.421875 -10.539062 10.332031 -10.832031 10.25 -11.125 C 10.175781 -11.425781 10.101562 -11.707031 10.03125 -11.96875 C 9.96875 -12.238281 9.910156 -12.476562 9.859375 -12.6875 C 9.816406 -12.894531 9.785156 -13.050781 9.765625 -13.15625 C 9.753906 -13.050781 9.726562 -12.894531 9.6875 -12.6875 C 9.644531 -12.488281 9.59375 -12.253906 9.53125 -11.984375 C 9.476562 -11.722656 9.410156 -11.441406 9.328125 -11.140625 C 9.253906 -10.847656 9.171875 -10.550781 9.078125 -10.25 L 6.140625 0 L 4.359375 0 L 0.3125 -15.234375 L 2.15625 -15.234375 L 4.609375 -5.6875 C 4.691406 -5.363281 4.769531 -5.046875 4.84375 -4.734375 C 4.914062 -4.421875 4.976562 -4.117188 5.03125 -3.828125 C 5.09375 -3.535156 5.144531 -3.25 5.1875 -2.96875 C 5.238281 -2.695312 5.289062 -2.429688 5.34375 -2.171875 C 5.375 -2.441406 5.414062 -2.722656 5.46875 -3.015625 C 5.53125 -3.304688 5.59375 -3.601562 5.65625 -3.90625 C 5.71875 -4.21875 5.789062 -4.53125 5.875 -4.84375 C 5.957031 -5.15625 6.039062 -5.46875 6.125 -5.78125 L 8.875 -15.234375 L 10.6875 -15.234375 L 13.546875 -5.71875 C 13.640625 -5.382812 13.726562 -5.054688 13.8125 -4.734375 C 13.894531 -4.421875 13.96875 -4.113281 14.03125 -3.8125 C 14.101562 -3.507812 14.164062 -3.21875 14.21875 -2.9375 C 14.269531 -2.664062 14.316406 -2.410156 14.359375 -2.171875 C 14.410156 -2.503906 14.46875 -2.859375 14.53125 -3.234375 C 14.601562 -3.609375 14.6875 -4 14.78125 -4.40625 C 14.875 -4.820312 14.976562 -5.25 15.09375 -5.6875 L 17.546875 -15.234375 Z M 19.390625 -15.234375 "
          />
        </g>
      </g>
      <g transform="translate(46.542775, 27.505074)">
        <g>
          <path
            d="M 3.546875 -11.421875 L 3.546875 0 L 1.828125 0 L 1.828125 -11.421875 Z M 2.703125 -15.6875 C 2.992188 -15.6875 3.238281 -15.59375 3.4375 -15.40625 C 3.644531 -15.226562 3.75 -14.945312 3.75 -14.5625 C 3.75 -14.175781 3.644531 -13.890625 3.4375 -13.703125 C 3.238281 -13.515625 2.992188 -13.421875 2.703125 -13.421875 C 2.410156 -13.421875 2.164062 -13.515625 1.96875 -13.703125 C 1.769531 -13.890625 1.671875 -14.175781 1.671875 -14.5625 C 1.671875 -14.945312 1.769531 -15.226562 1.96875 -15.40625 C 2.164062 -15.59375 2.410156 -15.6875 2.703125 -15.6875 Z M 2.703125 -15.6875 "
          />
        </g>
      </g>
      <g transform="translate(51.931608, 27.505074)">
        <g>
          <path
            d="M 3.5625 0 L 1.828125 0 L 1.828125 -16.21875 L 3.5625 -16.21875 Z M 3.5625 0 "
          />
        </g>
      </g>
      <g transform="translate(57.320442, 27.505074)">
        <g>
          <path
            d="M 5.890625 0.203125 C 4.441406 0.203125 3.296875 -0.285156 2.453125 -1.265625 C 1.609375 -2.253906 1.1875 -3.722656 1.1875 -5.671875 C 1.1875 -7.640625 1.613281 -9.125 2.46875 -10.125 C 3.332031 -11.125 4.484375 -11.625 5.921875 -11.625 C 6.523438 -11.625 7.050781 -11.546875 7.5 -11.390625 C 7.957031 -11.234375 8.347656 -11.019531 8.671875 -10.75 C 8.992188 -10.476562 9.269531 -10.175781 9.5 -9.84375 L 9.625 -9.84375 C 9.59375 -10.050781 9.5625 -10.34375 9.53125 -10.71875 C 9.507812 -11.09375 9.5 -11.398438 9.5 -11.640625 L 9.5 -16.21875 L 11.21875 -16.21875 L 11.21875 0 L 9.828125 0 L 9.5625 -1.625 L 9.5 -1.625 C 9.28125 -1.28125 9.003906 -0.96875 8.671875 -0.6875 C 8.347656 -0.414062 7.957031 -0.195312 7.5 -0.03125 C 7.039062 0.125 6.503906 0.203125 5.890625 0.203125 Z M 6.15625 -1.234375 C 7.382812 -1.234375 8.25 -1.578125 8.75 -2.265625 C 9.257812 -2.960938 9.515625 -4 9.515625 -5.375 L 9.515625 -5.6875 C 9.515625 -7.132812 9.269531 -8.242188 8.78125 -9.015625 C 8.300781 -9.796875 7.425781 -10.1875 6.15625 -10.1875 C 5.09375 -10.1875 4.296875 -9.78125 3.765625 -8.96875 C 3.242188 -8.15625 2.984375 -7.039062 2.984375 -5.625 C 2.984375 -4.21875 3.242188 -3.132812 3.765625 -2.375 C 4.285156 -1.613281 5.082031 -1.234375 6.15625 -1.234375 Z M 6.15625 -1.234375 "
          />
        </g>
      </g>
    </g>
    <g fill="#000000" fill-opacity="1">
      <g transform="translate(70.380806, 27.505074)"><g /></g>
      <g transform="translate(75.925989, 27.505074)"><g /></g>
      <g transform="translate(81.471171, 27.505074)"><g /></g>
      <g transform="translate(87.016354, 27.505074)"><g /></g>
      <g transform="translate(92.561537, 27.505074)"><g /></g>
      <g transform="translate(98.10672, 27.505074)"><g /></g>
    </g>
    <g fill="#000000" fill-opacity="1">
      <g transform="translate(103.651902, 27.505074)">
        <g>
          <path
            d="M 6.0625 -15.234375 C 8.03125 -15.234375 9.46875 -14.847656 10.375 -14.078125 C 11.28125 -13.316406 11.734375 -12.21875 11.734375 -10.78125 C 11.734375 -10.132812 11.625 -9.519531 11.40625 -8.9375 C 11.195312 -8.363281 10.859375 -7.851562 10.390625 -7.40625 C 9.921875 -6.96875 9.300781 -6.625 8.53125 -6.375 C 7.757812 -6.125 6.820312 -6 5.71875 -6 L 3.859375 -6 L 3.859375 0 L 2.078125 0 L 2.078125 -15.234375 Z M 5.90625 -13.71875 L 3.859375 -13.71875 L 3.859375 -7.515625 L 5.515625 -7.515625 C 6.484375 -7.515625 7.289062 -7.617188 7.9375 -7.828125 C 8.59375 -8.035156 9.082031 -8.375 9.40625 -8.84375 C 9.738281 -9.3125 9.90625 -9.9375 9.90625 -10.71875 C 9.90625 -11.726562 9.582031 -12.476562 8.9375 -12.96875 C 8.289062 -13.46875 7.28125 -13.71875 5.90625 -13.71875 Z M 5.90625 -13.71875 "
          />
        </g>
      </g>
      <g transform="translate(116.493377, 27.505074)">
        <g>
          <path
            d="M 11.25 -11.421875 L 11.25 0 L 9.84375 0 L 9.59375 -1.609375 L 9.5 -1.609375 C 9.257812 -1.210938 8.953125 -0.878906 8.578125 -0.609375 C 8.203125 -0.335938 7.78125 -0.132812 7.3125 0 C 6.84375 0.132812 6.34375 0.203125 5.8125 0.203125 C 4.90625 0.203125 4.144531 0.0546875 3.53125 -0.234375 C 2.925781 -0.523438 2.46875 -0.972656 2.15625 -1.578125 C 1.851562 -2.191406 1.703125 -2.976562 1.703125 -3.9375 L 1.703125 -11.421875 L 3.453125 -11.421875 L 3.453125 -4.0625 C 3.453125 -3.113281 3.664062 -2.40625 4.09375 -1.9375 C 4.519531 -1.46875 5.175781 -1.234375 6.0625 -1.234375 C 6.914062 -1.234375 7.59375 -1.390625 8.09375 -1.703125 C 8.59375 -2.023438 8.953125 -2.492188 9.171875 -3.109375 C 9.398438 -3.734375 9.515625 -4.5 9.515625 -5.40625 L 9.515625 -11.421875 Z M 11.25 -11.421875 "
          />
        </g>
      </g>
      <g transform="translate(129.585011, 27.505074)">
        <g>
          <path
            d="M 3.5625 0 L 1.828125 0 L 1.828125 -16.21875 L 3.5625 -16.21875 Z M 3.5625 0 "
          />
        </g>
      </g>
      <g transform="translate(134.973845, 27.505074)">
        <g>
          <path
            d="M 9.21875 -3.125 C 9.21875 -2.394531 9.035156 -1.78125 8.671875 -1.28125 C 8.304688 -0.789062 7.785156 -0.421875 7.109375 -0.171875 C 6.429688 0.078125 5.617188 0.203125 4.671875 0.203125 C 3.878906 0.203125 3.191406 0.140625 2.609375 0.015625 C 2.023438 -0.109375 1.515625 -0.285156 1.078125 -0.515625 L 1.078125 -2.109375 C 1.535156 -1.878906 2.085938 -1.671875 2.734375 -1.484375 C 3.378906 -1.296875 4.039062 -1.203125 4.71875 -1.203125 C 5.707031 -1.203125 6.421875 -1.359375 6.859375 -1.671875 C 7.304688 -1.992188 7.53125 -2.429688 7.53125 -2.984375 C 7.53125 -3.296875 7.441406 -3.570312 7.265625 -3.8125 C 7.085938 -4.050781 6.789062 -4.28125 6.375 -4.5 C 5.957031 -4.726562 5.378906 -4.976562 4.640625 -5.25 C 3.910156 -5.53125 3.28125 -5.804688 2.75 -6.078125 C 2.21875 -6.359375 1.804688 -6.695312 1.515625 -7.09375 C 1.234375 -7.488281 1.09375 -8 1.09375 -8.625 C 1.09375 -9.59375 1.484375 -10.332031 2.265625 -10.84375 C 3.046875 -11.363281 4.070312 -11.625 5.34375 -11.625 C 6.03125 -11.625 6.675781 -11.554688 7.28125 -11.421875 C 7.882812 -11.285156 8.445312 -11.101562 8.96875 -10.875 L 8.375 -9.5 C 7.90625 -9.695312 7.398438 -9.863281 6.859375 -10 C 6.328125 -10.144531 5.785156 -10.21875 5.234375 -10.21875 C 4.429688 -10.21875 3.816406 -10.082031 3.390625 -9.8125 C 2.960938 -9.550781 2.75 -9.191406 2.75 -8.734375 C 2.75 -8.378906 2.847656 -8.085938 3.046875 -7.859375 C 3.242188 -7.628906 3.5625 -7.410156 4 -7.203125 C 4.4375 -7.003906 5.015625 -6.769531 5.734375 -6.5 C 6.453125 -6.238281 7.070312 -5.96875 7.59375 -5.6875 C 8.113281 -5.40625 8.515625 -5.0625 8.796875 -4.65625 C 9.078125 -4.257812 9.21875 -3.75 9.21875 -3.125 Z M 9.21875 -3.125 "
          />
        </g>
      </g>
      <g transform="translate(145.146962, 27.505074)">
        <g>
          <path
            d="M 6.21875 -11.625 C 7.195312 -11.625 8.03125 -11.410156 8.71875 -10.984375 C 9.414062 -10.554688 9.945312 -9.953125 10.3125 -9.171875 C 10.6875 -8.398438 10.875 -7.5 10.875 -6.46875 L 10.875 -5.390625 L 2.984375 -5.390625 C 3.003906 -4.046875 3.335938 -3.019531 3.984375 -2.3125 C 4.628906 -1.613281 5.539062 -1.265625 6.71875 -1.265625 C 7.4375 -1.265625 8.070312 -1.332031 8.625 -1.46875 C 9.1875 -1.601562 9.765625 -1.796875 10.359375 -2.046875 L 10.359375 -0.53125 C 9.785156 -0.269531 9.210938 -0.0820312 8.640625 0.03125 C 8.078125 0.144531 7.410156 0.203125 6.640625 0.203125 C 5.535156 0.203125 4.578125 -0.0195312 3.765625 -0.46875 C 2.953125 -0.914062 2.316406 -1.570312 1.859375 -2.4375 C 1.410156 -3.300781 1.1875 -4.363281 1.1875 -5.625 C 1.1875 -6.851562 1.390625 -7.914062 1.796875 -8.8125 C 2.210938 -9.71875 2.796875 -10.410156 3.546875 -10.890625 C 4.304688 -11.378906 5.195312 -11.625 6.21875 -11.625 Z M 6.203125 -10.21875 C 5.273438 -10.21875 4.535156 -9.914062 3.984375 -9.3125 C 3.441406 -8.707031 3.117188 -7.863281 3.015625 -6.78125 L 9.0625 -6.78125 C 9.050781 -7.457031 8.941406 -8.050781 8.734375 -8.5625 C 8.535156 -9.082031 8.226562 -9.488281 7.8125 -9.78125 C 7.394531 -10.070312 6.859375 -10.21875 6.203125 -10.21875 Z M 6.203125 -10.21875 "
          />
        </g>
      </g>
    </g>
  </svg>
